<svg width="23" height="22" viewBox="0 0 23 22" fill="none" xmlns="http://www.w3.org/2000/svg">
<path d="M15.34 6.96827V11.9484C15.34 12.7409 15.6628 13.501 16.2373 14.0614C16.8119 14.6217 17.5912 14.9365 18.4037 14.9365C19.2163 14.9365 19.9956 14.6217 20.5701 14.0614C21.1447 13.501 21.4675 12.7409 21.4675 11.9484V10.9524C21.4673 8.70439 20.6875 6.52253 19.2547 4.76159C17.822 3.00066 15.8205 1.76422 13.5759 1.25333C11.3313 0.742433 8.97549 0.98713 6.89154 1.94763C4.8076 2.90813 3.11808 4.52795 2.0977 6.54369C1.07733 8.55943 0.786122 10.8525 1.27142 13.0502C1.75672 15.2478 2.98999 17.2207 4.7707 18.648C6.5514 20.0754 8.77482 20.8733 11.0794 20.9119C13.384 20.9506 15.6342 20.2277 17.4642 18.8609M15.34 10.9524C15.34 13.1528 13.5111 14.9365 11.255 14.9365C8.99891 14.9365 7.16999 13.1528 7.16999 10.9524C7.16999 8.75203 8.99891 6.96827 11.255 6.96827C13.5111 6.96827 15.34 8.75203 15.34 10.9524Z" stroke="#9EACB9" stroke-width="2" stroke-linecap="round" stroke-linejoin="round"/>
</svg>
