<svg width="124" height="124" viewBox="0 0 124 124" fill="none" xmlns="http://www.w3.org/2000/svg">
<path d="M105.594 54.9766C105.594 52.9419 103.996 51.3438 101.961 51.3438H93.969L88.311 43.3518L80.8904 51.3438H43.1096L36.6783 43.3518L30.031 51.3438H22.0391C20.0044 51.3438 18.4062 52.9419 18.4062 54.9766V69.5078L25.6719 73.1406L18.4062 76.7734V84.0391L25.6719 87.6719L18.4062 91.3047V98.5703L25.6719 102.203L18.4062 105.836V120.367C18.4062 122.401 20.0044 124 22.0391 124H101.961C103.996 124 105.594 122.401 105.594 120.367V105.836L98.4008 102.203L105.594 98.5703V91.3047L98.4008 87.6719L105.594 84.0391V76.7734L98.4008 73.1406L105.594 69.5078V54.9766Z" fill="url(#paint0_linear_413_998)"/>
<path d="M62 65.875C55.9904 65.875 51.1016 70.7638 51.1016 76.7734C51.1016 78.7814 52.7264 80.4062 54.7344 80.4062C56.7424 80.4062 58.3672 78.7814 58.3672 76.7734C58.3672 74.7691 59.999 73.1406 62 73.1406C64.001 73.1406 65.6328 74.7691 65.6328 76.7734C65.6328 78.0684 64.9375 79.2745 63.8094 79.9238C60.4532 81.8679 58.3672 85.483 58.3672 89.3606V91.3047C58.3672 93.3127 59.992 94.9375 62 94.9375C64.008 94.9375 65.6328 93.3127 65.6328 91.3047V89.3606C65.6328 88.0693 66.3281 86.8596 67.4492 86.2103C70.8125 84.2696 72.8984 80.6511 72.8984 76.7734C72.8984 70.7638 68.0096 65.875 62 65.875ZM62 102.203C59.9937 102.203 58.3672 103.83 58.3672 105.836C58.3672 107.842 59.9937 109.469 62 109.469C64.0063 109.469 65.6328 107.842 65.6328 105.836C65.6328 103.83 64.0063 102.203 62 102.203ZM29.3047 98.5703H18.4062V105.836H29.3047C31.3393 105.836 32.9375 104.237 32.9375 102.203C32.9375 100.169 31.3393 98.5703 29.3047 98.5703ZM29.3047 84.0391H18.4062V91.3047H29.3047C31.3393 91.3047 32.9375 89.706 32.9375 87.6719C32.9375 85.6373 31.3393 84.0391 29.3047 84.0391ZM29.3047 69.5078H18.4062V76.7734H29.3047C31.3393 76.7734 32.9375 75.1748 32.9375 73.1406C32.9375 71.106 31.3393 69.5078 29.3047 69.5078ZM91.1352 87.6719C91.1352 89.706 92.806 91.3047 94.768 91.3047H105.594V84.0391H94.768C92.8062 84.0391 91.1352 85.6373 91.1352 87.6719ZM94.768 69.5078C92.806 69.5078 91.1352 71.106 91.1352 73.1406C91.1352 75.1748 92.806 76.7734 94.768 76.7734H105.594V69.5078H94.768ZM91.1352 102.203C91.1352 104.237 92.806 105.836 94.768 105.836H105.594V98.5703H94.768C92.8062 98.5703 91.1352 100.169 91.1352 102.203ZM93.969 51.3438V31.969C93.969 14.0939 79.4716 0 62 0C44.3445 0 30.031 14.3135 30.031 31.969V51.3438H43.1094V31.969C43.1096 21.5791 51.6102 13.0781 62 13.0781C72.3898 13.0781 80.8904 21.5791 80.8904 31.969V51.3438H93.969Z" fill="url(#paint1_linear_413_998)"/>
<defs>
<linearGradient id="paint0_linear_413_998" x1="62" y1="124" x2="62" y2="43.3518" gradientUnits="userSpaceOnUse">
<stop stop-color="#FCD731"/>
<stop offset="1" stop-color="#FFF4C2"/>
</linearGradient>
<linearGradient id="paint1_linear_413_998" x1="62" y1="109.469" x2="62" y2="0" gradientUnits="userSpaceOnUse">
<stop/>
<stop offset="1" stop-color="#828282"/>
</linearGradient>
</defs>
</svg>
