<svg width="25" height="25" viewBox="0 0 25 25" fill="none" xmlns="http://www.w3.org/2000/svg">
<path d="M15.6252 5.91007C18.0886 7.08035 19.7918 9.59129 19.7918 12.5M8.74226 18.75C6.62473 17.4741 5.2085 15.1524 5.2085 12.5M22.9168 12.5C22.9168 18.253 18.2531 22.9167 12.5002 22.9167C6.7472 22.9167 2.0835 18.253 2.0835 12.5C2.0835 6.74707 6.7472 2.08337 12.5002 2.08337C18.2531 2.08337 22.9168 6.74707 22.9168 12.5ZM15.6252 12.5C15.6252 14.2259 14.2261 15.625 12.5002 15.625C10.7743 15.625 9.37516 14.2259 9.37516 12.5C9.37516 10.7742 10.7743 9.37504 12.5002 9.37504C14.2261 9.37504 15.6252 10.7742 15.6252 12.5Z" stroke="#9EACB9" stroke-width="2" stroke-linecap="round" stroke-linejoin="round"/>
</svg>
