<svg width="25" height="25" viewBox="0 0 25 25" fill="none" xmlns="http://www.w3.org/2000/svg">
<path d="M8.33333 17.7083H16.6667M11.4768 2.8792L4.41186 8.37412C3.93961 8.74143 3.70348 8.92509 3.53336 9.15509C3.38267 9.35883 3.27042 9.58835 3.20211 9.83238C3.125 10.1079 3.125 10.407 3.125 11.0053V18.5417C3.125 19.7085 3.125 20.2918 3.35207 20.7375C3.55181 21.1295 3.87052 21.4482 4.26252 21.6479C4.70817 21.875 5.29156 21.875 6.45833 21.875H18.5417C19.7084 21.875 20.2918 21.875 20.7375 21.6479C21.1295 21.4482 21.4482 21.1295 21.6479 20.7375C21.875 20.2918 21.875 19.7085 21.875 18.5417V11.0053C21.875 10.407 21.875 10.1079 21.7979 9.83238C21.7296 9.58835 21.6173 9.35883 21.4666 9.15509C21.2965 8.92509 21.0604 8.74143 20.5881 8.37412L13.5232 2.8792C13.1573 2.59456 12.9743 2.45224 12.7722 2.39753C12.594 2.34926 12.406 2.34926 12.2278 2.39753C12.0257 2.45224 11.8427 2.59456 11.4768 2.8792Z" stroke="#9EACB9" stroke-width="2" stroke-linecap="round" stroke-linejoin="round"/>
</svg>
