<svg width="23" height="22" viewBox="0 0 23 22" fill="none" xmlns="http://www.w3.org/2000/svg">
<path d="M11.255 14.9367V10.9525M11.255 6.96839H11.2652M1.04248 7.48906V14.416C1.04248 14.6596 1.04248 14.7814 1.0707 14.8961C1.09571 14.9977 1.13698 15.0948 1.19297 15.184C1.25613 15.2845 1.34444 15.3706 1.52107 15.5429L6.54842 20.4461C6.72504 20.6184 6.81336 20.7045 6.91642 20.7661C7.00779 20.8207 7.10741 20.861 7.21161 20.8854C7.32915 20.9129 7.45404 20.9129 7.70383 20.9129H14.8061C15.0559 20.9129 15.1808 20.9129 15.2983 20.8854C15.4026 20.861 15.5022 20.8207 15.5935 20.7661C15.6966 20.7045 15.7849 20.6184 15.9615 20.4461L20.9889 15.5429C21.1655 15.3706 21.2538 15.2845 21.317 15.184C21.373 15.0948 21.4142 14.9977 21.4393 14.8961C21.4675 14.7814 21.4675 14.6596 21.4675 14.416V7.48906C21.4675 7.24544 21.4675 7.12363 21.4393 7.009C21.4142 6.90737 21.373 6.81021 21.317 6.72109C21.2538 6.62058 21.1655 6.53444 20.9889 6.36218L15.9615 1.45896C15.7849 1.28669 15.6966 1.20056 15.5935 1.13896C15.5022 1.08435 15.4026 1.04411 15.2983 1.01971C15.1808 0.992188 15.0559 0.992188 14.8061 0.992188H7.70383C7.45404 0.992188 7.32915 0.992188 7.21161 1.01971C7.10741 1.04411 7.00779 1.08435 6.91642 1.13896C6.81336 1.20056 6.72505 1.28669 6.54842 1.45896L1.52107 6.36218C1.34444 6.53444 1.25613 6.62058 1.19297 6.72109C1.13698 6.81021 1.09571 6.90737 1.0707 7.009C1.04248 7.12363 1.04248 7.24544 1.04248 7.48906Z" stroke="#9EACB9" stroke-width="2" stroke-linecap="round" stroke-linejoin="round"/>
</svg>
