<svg width="19" height="21" viewBox="0 0 19 21" fill="none" xmlns="http://www.w3.org/2000/svg">
<path d="M14.3612 9.95637V6.96827C14.3612 4.2178 12.0751 1.9881 9.25496 1.9881C6.43486 1.9881 4.14871 4.2178 4.14871 6.96827V9.95637M5.98696 19.9167H12.523C14.2388 19.9167 15.0968 19.9167 15.7521 19.591C16.3286 19.3045 16.7973 18.8474 17.091 18.2852C17.425 17.646 17.425 16.8092 17.425 15.1357V14.7373C17.425 13.0638 17.425 12.2271 17.091 11.5879C16.7973 11.0257 16.3286 10.5685 15.7521 10.2821C15.0968 9.95637 14.2388 9.95637 12.523 9.95637H5.98696C4.2711 9.95637 3.41317 9.95637 2.7578 10.2821C2.18132 10.5685 1.71262 11.0257 1.41889 11.5879C1.08496 12.2271 1.08496 13.0638 1.08496 14.7373V15.1357C1.08496 16.8092 1.08496 17.646 1.41889 18.2852C1.71262 18.8474 2.18132 19.3045 2.7578 19.591C3.41317 19.9167 4.2711 19.9167 5.98696 19.9167Z" stroke="#9EACB9" stroke-width="2" stroke-linecap="round" stroke-linejoin="round"/>
</svg>
