<svg width="90" height="95" viewBox="0 0 90 95" fill="none" xmlns="http://www.w3.org/2000/svg">
<g clip-path="url(#clip0_592_890)">
<g filter="url(#filter0_b_592_890)">
<path d="M87.4128 38.7465C85.0639 53.0688 72.806 65.522 57.3861 72.6184C35.3693 82.7474 15.7464 71.5572 7.21748 54.8504C5.58249 51.6549 4.3555 48.2575 3.59951 44.7696C0.560529 30.8422 4.9465 15.4588 20.6094 5.6222C41.3242 -8.38356 83.0929 5.44434 87.3888 28.6597C87.4068 28.7652 87.4249 28.8677 87.4429 28.9732C87.9738 32.2953 87.9378 35.5721 87.4128 38.7465Z" fill="#FCD731"/>
</g>
<path d="M87.3988 28.3526C87.3808 28.2441 87.2115 27.8789 87.1935 27.7704H60.947C56.429 27.7704 52.5741 31.0744 51.8241 35.5148L47.4861 52.6859L38.2912 28.3492C38.2732 28.2979 38.2582 28.2346 38.2342 28.1442C37.2472 24.3006 33.9232 21.5241 29.9572 21.2287C25.9343 20.9393 22.3253 23.155 20.7623 26.8871L14.2013 42.5117C13.6494 43.8321 12.3744 44.6822 10.9524 44.6822L3.6416 44.7399C4.4366 48.4026 5.82735 51.9112 7.54334 55.2664H10.9494C16.6193 55.2664 21.7013 51.881 23.9033 46.6266L29.1772 34.0708L38.7052 59.2909C38.7232 59.3542 38.7382 59.4145 38.7562 59.4898C39.8121 63.656 43.4331 66.4445 47.6871 66.4445C47.8851 66.4445 48.0921 66.4385 48.2961 66.4264C52.6671 66.1551 56.126 62.9958 56.837 58.694L61.976 38.3606H87.4837C88.0357 35.0265 87.9508 31.8405 87.3958 28.3526H87.3988Z" fill="white"/>
</g>
<g clip-path="url(#clip1_592_890)">
<path d="M1.11666 94.3337V85.5241C1.09331 85.0824 1.02326 84.594 0.534292 84.594H0V81.7819H0.559015C1.79242 81.7819 4.77154 81.7819 4.93499 83.7106C5.77282 82.502 7.21637 81.5253 9.24091 81.5253C12.8944 81.5253 14.7102 83.3155 14.7102 86.9411V90.0331C14.7102 91.0798 14.9423 91.5435 16.037 91.5435H16.2004L16.2238 94.3337C14.2693 94.3337 10.8713 94.4503 10.8713 91.3816V88.0111C10.8713 85.5707 10.1035 84.4088 8.07756 84.4088C6.42524 84.4088 4.93499 85.7573 4.95834 88.0578L4.93499 88.0344V94.3337H1.11666Z" fill="white"/>
<path d="M17.6179 81.7805H21.4349V89.1497C21.4349 90.8233 22.6916 91.6134 24.0184 91.6134C25.4853 91.6134 27.0209 90.66 27.0209 88.8712V81.7805H30.8379V90.0331C30.8379 91.0798 30.9546 91.5215 32.0479 91.5215H32.2114L32.2347 94.3337C29.3256 94.3337 27.5566 94.0552 27.1377 92.405C26.1364 93.9153 24.484 94.6835 22.8084 94.6835C20.2015 94.6835 17.6179 92.8234 17.6179 89.1511V81.7819V81.7805Z" fill="white"/>
<path d="M34.1891 94.3337V85.5241C34.1657 85.0824 34.0957 84.594 33.6067 84.594H33.071V81.7819H33.6301C34.8168 81.7819 37.5871 81.7819 37.9593 83.4554C38.6571 82.3621 39.8218 81.5267 41.4508 81.5267C43.7555 81.5267 45.1977 82.3402 45.9201 83.9671C46.4325 82.642 47.5491 81.5267 49.6671 81.5267C53.1118 81.5267 54.6474 83.3169 54.6474 86.9425V90.0345C54.6474 91.0812 54.8795 91.5448 55.9742 91.5448H56.1376V94.3351C54.1831 94.3351 50.8084 94.4517 50.8084 91.383V87.6407C50.8084 85.4788 50.2027 84.4102 48.6905 84.4102C47.2936 84.4102 46.5259 85.5255 46.4325 87.5022V94.3364H42.5922V87.6421C42.5922 85.4802 41.9411 84.4116 40.4042 84.4116C38.8672 84.4116 38.0074 85.7134 38.0308 88.0605L38.0074 88.0372V94.3364H34.1904L34.1891 94.3337Z" fill="white"/>
<path d="M71.8697 81.7805V94.3337H68.5183L68.1461 92.335C67.0982 93.9386 65.4458 94.6835 63.7235 94.6835C60.6509 94.6835 57.4397 92.2664 57.4397 88.0591C57.4397 83.8519 60.6509 81.4348 63.7235 81.4348C65.3758 81.4348 66.9814 82.1317 68.0527 83.6434V81.7832H71.8697V81.7805ZM64.7481 91.6601C66.4004 91.6601 68.0294 90.4982 68.0294 88.0578C68.0294 85.6174 66.4004 84.4774 64.7481 84.4774C63.0958 84.4774 61.28 85.7093 61.28 88.0578C61.28 90.4063 63.0491 91.6601 64.7481 91.6601Z" fill="white"/>
<path d="M74.9189 94.3337V76.8997H78.7359V83.8039C79.527 82.5487 80.9239 81.5253 83.0185 81.5253C86.672 81.5253 88.4878 83.3155 88.4878 86.9411V90.0331C88.4878 91.0798 88.7432 91.5435 89.8146 91.5435H89.978L90.0014 94.3337C88.0469 94.3337 84.6474 94.4503 84.6474 91.3816L84.6708 88.0111C84.6708 85.5707 83.8797 84.4088 81.8551 84.4088C80.2028 84.4088 78.7359 85.7106 78.7359 88.0578V88.0344V94.3337H74.9189Z" fill="white"/>
<path d="M88.4863 74.9133C89.3159 74.9133 89.9999 75.5855 89.9999 76.4031C89.9999 77.2207 89.3365 77.9354 88.4863 77.9354C87.6361 77.9354 86.9521 77.2426 86.9521 76.4031C86.9521 75.5636 87.6458 74.9133 88.4863 74.9133ZM88.4863 77.6871C89.191 77.6871 89.761 77.0766 89.761 76.4045C89.761 75.7323 89.1813 75.141 88.4863 75.141C87.7914 75.141 87.2117 75.7213 87.2117 76.4045C87.2117 77.0876 87.7914 77.6871 88.4863 77.6871ZM89.1182 77.2632H88.8077L88.2789 76.6116H88.1443V77.2632H87.9054V75.5032H88.4438C88.7968 75.5142 89.055 75.7309 89.055 76.0519C89.055 76.3208 88.8476 76.5389 88.5578 76.5897L89.1168 77.2618L89.1182 77.2632ZM88.1443 76.3935H88.3517C88.6319 76.3935 88.8393 76.3002 88.8393 76.0519C88.8393 75.8036 88.6429 75.6898 88.3627 75.6898H88.1457V76.3935H88.1443Z" fill="white"/>
</g>
<defs>
<filter id="filter0_b_592_890" x="-7.30273" y="-10.0017" width="105.127" height="96.4754" filterUnits="userSpaceOnUse" color-interpolation-filters="sRGB">
<feFlood flood-opacity="0" result="BackgroundImageFix"/>
<feGaussianBlur in="BackgroundImageFix" stdDeviation="5"/>
<feComposite in2="SourceAlpha" operator="in" result="effect1_backgroundBlur_592_890"/>
<feBlend mode="normal" in="SourceGraphic" in2="effect1_backgroundBlur_592_890" result="shape"/>
</filter>
<clipPath id="clip0_592_890">
<rect width="88.4393" height="76.474" fill="white" transform="translate(1.04053)"/>
</clipPath>
<clipPath id="clip1_592_890">
<rect width="90" height="19.7688" fill="white" transform="translate(0 74.9133)"/>
</clipPath>
</defs>
</svg>
