<svg width="158" height="167" viewBox="0 0 158 167" fill="none" xmlns="http://www.w3.org/2000/svg">
<g clip-path="url(#clip0_413_908)">
<g filter="url(#filter0_b_413_908)">
<path d="M153.458 68.0216C149.334 93.1651 127.815 115.028 100.744 127.486C62.0926 145.268 27.6436 125.623 12.6706 96.2929C9.80028 90.6831 7.64623 84.7187 6.31904 78.5955C0.983948 54.1452 8.68376 27.1388 36.1808 9.87007C72.5469 -14.7178 145.874 9.55783 153.416 50.3136C153.447 50.4988 153.479 50.6788 153.511 50.864C154.443 56.6961 154.38 62.4488 153.458 68.0216Z" fill="#FCD731"/>
</g>
<path d="M153.434 49.7746C153.402 49.584 153.105 48.9429 153.073 48.7524H106.996C99.0643 48.7524 92.2967 54.5527 90.98 62.3483L83.3645 92.493L67.2223 49.7685C67.1907 49.6786 67.1644 49.5674 67.1222 49.4086C65.3895 42.661 59.5541 37.7868 52.5916 37.2682C45.5291 36.7601 39.1933 40.6499 36.4494 47.2018L24.9313 74.6316C23.9622 76.9496 21.7239 78.4421 19.2275 78.4421L6.39307 78.5434C7.78872 84.9735 10.2303 91.1329 13.2428 97.0232H19.2223C29.1762 97.0232 38.0978 91.08 41.9636 81.8556L51.2223 59.8133L67.9491 104.088C67.9807 104.2 68.007 104.305 68.0386 104.438C69.8925 111.752 76.2493 116.647 83.7174 116.647C84.065 116.647 84.4284 116.636 84.7865 116.615C92.46 116.139 98.5324 110.593 99.7806 103.041L108.802 67.3442H153.583C154.552 61.4909 154.403 55.8977 153.428 49.7746H153.434Z" fill="white"/>
</g>
<g clip-path="url(#clip1_413_908)">
<path d="M1.96035 165.608V150.142C1.91936 149.367 1.79639 148.509 0.937979 148.509H0V143.573H0.981381C3.14669 143.573 8.37671 143.573 8.66364 146.959C10.1345 144.837 12.6687 143.122 16.2229 143.122C22.6369 143.122 25.8246 146.265 25.8246 152.63V158.058C25.8246 159.896 26.2321 160.71 28.1538 160.71H28.4408L28.4818 165.608C25.0505 165.608 19.0851 165.813 19.0851 160.425V154.508C19.0851 150.224 17.7372 148.184 14.1806 148.184C11.2799 148.184 8.66364 150.552 8.70464 154.59L8.66364 154.549V165.608H1.96035Z" fill="#161A1E"/>
<path d="M30.9292 143.57H37.6301V156.507C37.6301 159.445 39.8364 160.832 42.1657 160.832C44.7409 160.832 47.4367 159.159 47.4367 156.018V143.57H54.1375V158.058C54.1375 159.896 54.3425 160.671 56.2619 160.671H56.5488L56.5898 165.608C51.4828 165.608 48.3771 165.119 47.6416 162.222C45.8838 164.874 42.9831 166.222 40.0413 166.222C35.4648 166.222 30.9292 162.957 30.9292 156.51V143.573V143.57Z" fill="#161A1E"/>
<path d="M60.0211 165.608V150.142C59.9801 149.367 59.8571 148.509 58.9987 148.509H58.0583V143.573H59.0397C61.1231 143.573 65.9866 143.573 66.64 146.511C67.8649 144.591 69.9097 143.125 72.7694 143.125C76.8155 143.125 79.3473 144.553 80.6157 147.409C81.5151 145.083 83.4754 143.125 87.1936 143.125C93.241 143.125 95.9368 146.267 95.9368 152.632V158.061C95.9368 159.898 96.3443 160.712 98.2661 160.712H98.553V165.61C95.1218 165.61 89.1973 165.815 89.1973 160.428V153.858C89.1973 150.063 88.134 148.187 85.4792 148.187C83.0269 148.187 81.679 150.145 81.5151 153.615V165.613H74.7732V153.861C74.7732 150.065 73.6302 148.189 70.9321 148.189C68.2339 148.189 66.7244 150.475 66.7654 154.595L66.7244 154.554V165.613H60.0235L60.0211 165.608Z" fill="#161A1E"/>
<path d="M126.172 143.57V165.608H120.288L119.635 162.099C117.795 164.914 114.894 166.222 111.87 166.222C106.476 166.222 100.839 161.979 100.839 154.593C100.839 147.207 106.476 142.963 111.87 142.963C114.771 142.963 117.59 144.187 119.471 146.841V143.575H126.172V143.57ZM113.669 160.914C116.57 160.914 119.43 158.875 119.43 154.59C119.43 150.306 116.57 148.305 113.669 148.305C110.768 148.305 107.581 150.467 107.581 154.59C107.581 158.713 110.686 160.914 113.669 160.914Z" fill="#161A1E"/>
<path d="M131.524 165.608V135.002H138.225V147.122C139.614 144.919 142.066 143.122 145.744 143.122C152.158 143.122 155.345 146.265 155.345 152.63V158.058C155.345 159.896 155.794 160.71 157.674 160.71H157.961L158.002 165.608C154.571 165.608 148.603 165.813 148.603 160.425L148.644 154.508C148.644 150.224 147.255 148.184 143.701 148.184C140.801 148.184 138.225 150.47 138.225 154.59V154.549V165.608H131.524Z" fill="#161A1E"/>
<path d="M155.343 131.515C156.799 131.515 158 132.695 158 134.13C158 135.565 156.835 136.82 155.343 136.82C153.85 136.82 152.649 135.604 152.649 134.13C152.649 132.656 153.867 131.515 155.343 131.515ZM155.343 136.384C156.58 136.384 157.58 135.312 157.58 134.132C157.58 132.952 156.563 131.914 155.343 131.914C154.123 131.914 153.105 132.933 153.105 134.132C153.105 135.332 154.123 136.384 155.343 136.384ZM156.452 135.64H155.907L154.979 134.496H154.742V135.64H154.323V132.55H155.268C155.888 132.569 156.341 132.95 156.341 133.513C156.341 133.985 155.977 134.368 155.468 134.457L156.45 135.637L156.452 135.64ZM154.742 134.113H155.106C155.598 134.113 155.962 133.949 155.962 133.513C155.962 133.077 155.618 132.878 155.126 132.878H154.745V134.113H154.742Z" fill="#161A1E"/>
</g>
<defs>
<filter id="filter0_b_413_908" x="-5.26489" y="-10.003" width="169.445" height="154.257" filterUnits="userSpaceOnUse" color-interpolation-filters="sRGB">
<feFlood flood-opacity="0" result="BackgroundImageFix"/>
<feGaussianBlur in="BackgroundImageFix" stdDeviation="5"/>
<feComposite in2="SourceAlpha" operator="in" result="effect1_backgroundBlur_413_908"/>
<feBlend mode="normal" in="SourceGraphic" in2="effect1_backgroundBlur_413_908" result="shape"/>
</filter>
<clipPath id="clip0_413_908">
<rect width="155.26" height="134.254" fill="white" transform="translate(1.82666)"/>
</clipPath>
<clipPath id="clip1_413_908">
<rect width="158" height="34.7052" fill="white" transform="translate(0 131.515)"/>
</clipPath>
</defs>
</svg>
