<svg width="404" height="339" viewBox="0 0 404 339" fill="none" xmlns="http://www.w3.org/2000/svg">
<g clip-path="url(#clip0_4001_2101)">
<g filter="url(#filter0_b_4001_2101)">
<path d="M394.558 171.758C383.827 235.247 327.832 290.451 257.392 321.908C156.817 366.809 67.178 317.204 28.2169 243.145C20.7481 228.98 15.1431 213.92 11.6896 198.458C-2.19272 136.72 17.8428 68.5269 89.3925 24.9225C184.02 -37.1634 374.824 24.134 394.448 127.045C394.53 127.512 394.613 127.967 394.695 128.435C397.12 143.161 396.956 157.687 394.558 171.758Z" fill="#FCD731"/>
</g>
<path d="M394.494 125.684C394.412 125.203 393.638 123.584 393.556 123.103H273.659C253.021 123.103 235.411 137.749 231.985 157.433L212.169 233.55L170.165 125.668C170.083 125.441 170.014 125.161 169.905 124.76C165.396 107.722 150.212 95.4139 132.095 94.1043C113.717 92.8214 97.2313 102.643 90.0914 119.187L60.1203 188.449C57.5988 194.302 51.7745 198.071 45.2787 198.071L11.8823 198.327C15.5139 214.563 21.867 230.116 29.7059 244.989H45.265C71.1659 244.989 94.3809 229.982 104.44 206.69L128.532 151.032L172.056 262.829C172.139 263.11 172.207 263.377 172.289 263.711C177.113 282.179 193.654 294.54 213.087 294.54C213.991 294.54 214.937 294.514 215.869 294.46C235.836 293.257 251.637 279.253 254.885 260.183L278.36 170.048H394.882C397.403 155.268 397.016 141.145 394.48 125.684H394.494Z" fill="white"/>
</g>
<defs>
<filter id="filter0_b_4001_2101" x="-2.43188" y="-10.0076" width="408.869" height="359.006" filterUnits="userSpaceOnUse" color-interpolation-filters="sRGB">
<feFlood flood-opacity="0" result="BackgroundImageFix"/>
<feGaussianBlur in="BackgroundImageFix" stdDeviation="5"/>
<feComposite in2="SourceAlpha" operator="in" result="effect1_backgroundBlur_4001_2101"/>
<feBlend mode="normal" in="SourceGraphic" in2="effect1_backgroundBlur_4001_2101" result="shape"/>
</filter>
<clipPath id="clip0_4001_2101">
<rect width="404" height="339" fill="white"/>
</clipPath>
</defs>
</svg>
