<svg width="60" height="60" viewBox="0 0 60 60" fill="none" xmlns="http://www.w3.org/2000/svg">
<circle cx="30" cy="30" r="30" fill="white"/>
<path d="M26.36 41.92C26.36 44.5045 24.2646 46.6 21.68 46.6C19.0955 46.6 17 44.5045 17 41.92V17.68C17 15.0955 19.0955 13 21.68 13C24.2646 13 26.36 15.0955 26.36 17.68V41.92Z" fill="#161A1E"/>
<path d="M43.924 41.92C43.924 44.5045 41.8285 46.6 39.244 46.6C36.6594 46.6 34.564 44.5045 34.564 41.92V17.68C34.5647 15.0955 36.6601 13 39.244 13C41.8285 13 43.924 15.0955 43.924 17.68V41.92Z" fill="#161A1E"/>
</svg>
