<svg width="430" height="277" viewBox="0 0 430 277" fill="none" xmlns="http://www.w3.org/2000/svg">
<path d="M0 276.447H430V13.447C146 -38.053 166.548 79.7103 0 13.447V276.447Z" fill="url(#paint0_linear_6027_2127)"/>
<g opacity="0.05" clip-path="url(#clip0_6027_2127)">
<path d="M506.643 159.572C499.418 203.771 461.719 242.202 414.294 264.101C346.58 295.36 286.229 260.827 259.998 209.269C254.969 199.408 251.195 188.923 248.87 178.16C239.524 135.18 253.013 87.7061 301.185 57.3502C364.895 14.1282 493.357 56.8013 506.569 128.444C506.624 128.77 506.68 129.086 506.735 129.412C508.368 139.664 508.258 149.776 506.643 159.572Z" fill="white"/>
<path d="M511.773 126.714C511.717 126.379 511.653 126.035 511.598 125.7H425.246C411.351 125.7 399.494 135.896 397.188 149.599L383.846 202.589L355.567 127.486C355.511 127.328 355.465 127.132 355.391 126.853C352.356 114.992 342.133 106.424 329.935 105.512C317.562 104.619 306.463 111.457 301.656 122.974L281.477 171.192C279.779 175.266 275.858 177.89 271.485 177.89H241C243.445 189.193 247.403 200.199 252.681 210.553H271.475C288.914 210.553 304.544 200.106 311.316 183.89L327.536 145.143L356.84 222.972C356.895 223.168 356.941 223.354 356.997 223.586C360.245 236.443 371.381 245.049 384.464 245.049C385.073 245.049 385.71 245.03 386.337 244.993C399.78 244.156 410.419 234.406 412.605 221.13L428.411 158.381H511.662C513.36 148.092 513.471 137.477 511.764 126.714H511.773Z" fill="#281A44"/>
</g>
<defs>
<linearGradient id="paint0_linear_6027_2127" x1="215" y1="276.447" x2="215" y2="13.447" gradientUnits="userSpaceOnUse">
<stop stop-color="#161A1E"/>
<stop offset="1" stop-color="#360707"/>
</linearGradient>
<clipPath id="clip0_6027_2127">
<rect width="189" height="236" fill="white" transform="translate(241 40)"/>
</clipPath>
</defs>
</svg>
