<svg width="110" height="29" viewBox="0 0 110 29" fill="none" xmlns="http://www.w3.org/2000/svg">
<path d="M1.36478 28.1664V17.393C1.33624 16.8529 1.25063 16.2557 0.653013 16.2557H0V12.8166H0.68323C2.1907 12.8166 5.83179 12.8166 6.03156 15.1753C7.05556 13.6974 8.81988 12.5029 11.2943 12.5029C15.7596 12.5029 17.9788 14.6922 17.9788 19.126V22.9072C17.9788 24.1872 18.2625 24.7542 19.6005 24.7542H19.8002L19.8288 28.1664C17.44 28.1664 13.2869 28.309 13.2869 24.5563V20.4345C13.2869 17.4501 12.3485 16.0292 9.87242 16.0292C7.85295 16.0292 6.03156 17.6782 6.0601 20.4915L6.03156 20.463V28.1664H1.36478Z" fill="white"/>
<path d="M21.5325 12.8143H26.1976V21.8262C26.1976 23.8729 27.7336 24.8392 29.3552 24.8392C31.148 24.8392 33.0248 23.6732 33.0248 21.4857V12.8143H37.6899V22.9066C37.6899 24.1866 37.8326 24.7268 39.1689 24.7268H39.3686L39.3972 28.1658C35.8417 28.1658 33.6795 27.8252 33.1675 25.8071C31.9438 27.6541 29.9243 28.5936 27.8763 28.5936C24.6901 28.5936 21.5325 26.3188 21.5325 21.8279V12.816V12.8143Z" fill="white"/>
<path d="M41.7863 28.1661V17.3927C41.7577 16.8525 41.6721 16.2553 41.0745 16.2553H40.4198V12.8163H41.103C42.5534 12.8163 45.9394 12.8163 46.3943 14.8629C47.2471 13.5259 48.6706 12.5043 50.6615 12.5043C53.4784 12.5043 55.241 13.4991 56.124 15.4887C56.7502 13.8681 58.1149 12.5043 60.7035 12.5043C64.9137 12.5043 66.7904 14.6935 66.7904 19.1273V22.9086C66.7904 24.1885 67.0741 24.7556 68.4121 24.7556H68.6118V28.1677C66.223 28.1677 62.0985 28.3103 62.0985 24.5576V19.9812C62.0985 17.3373 61.3582 16.0305 59.5099 16.0305C57.8027 16.0305 56.8643 17.3944 56.7502 19.8118V28.1694H52.0565V19.9829C52.0565 17.339 51.2608 16.0322 49.3824 16.0322C47.5039 16.0322 46.453 17.6242 46.4816 20.4945L46.453 20.466V28.1694H41.7879L41.7863 28.1661Z" fill="white"/>
<path d="M87.8396 12.8154V28.1669H83.7436L83.2886 25.7227C82.0078 27.6837 79.9883 28.5947 77.8832 28.5947C74.128 28.5947 70.2032 25.6388 70.2032 20.4937C70.2032 15.3486 74.128 12.3927 77.8832 12.3927C79.9027 12.3927 81.8651 13.2449 83.1745 15.0936V12.8188H87.8396V12.8154ZM79.1355 24.8973C81.155 24.8973 83.1459 23.4764 83.1459 20.492C83.1459 17.5076 81.155 16.1135 79.1355 16.1135C77.1161 16.1135 74.8968 17.62 74.8968 20.492C74.8968 23.364 77.059 24.8973 79.1355 24.8973Z" fill="white"/>
<path d="M91.5662 28.1669V6.84668H96.2313V15.2899C97.1982 13.7549 98.9055 12.5034 101.465 12.5034C105.931 12.5034 108.15 14.6927 108.15 19.1265V22.9077C108.15 24.1877 108.462 24.7547 109.772 24.7547H109.971L110 28.1669C107.611 28.1669 103.456 28.3095 103.456 24.5568L103.485 20.435C103.485 17.4506 102.518 16.0297 100.044 16.0297C98.0242 16.0297 96.2313 17.6217 96.2313 20.492V20.4635V28.1669H91.5662Z" fill="white"/>
<path d="M108.148 4.41748C109.162 4.41748 109.998 5.23949 109.998 6.23932C109.998 7.23915 109.188 8.11317 108.148 8.11317C107.109 8.11317 106.273 7.26599 106.273 6.23932C106.273 5.21265 107.121 4.41748 108.148 4.41748ZM108.148 7.80953C109.01 7.80953 109.706 7.06301 109.706 6.241C109.706 5.41899 108.998 4.69596 108.148 4.69596C107.299 4.69596 106.591 5.40557 106.591 6.241C106.591 7.07643 107.299 7.80953 108.148 7.80953ZM108.921 7.29116H108.541L107.895 6.49431H107.73V7.29116H107.438V5.13884H108.096C108.528 5.15226 108.843 5.41731 108.843 5.80986C108.843 6.13867 108.59 6.4054 108.236 6.46747L108.919 7.28948L108.921 7.29116ZM107.73 6.22758H107.984C108.326 6.22758 108.58 6.1135 108.58 5.80986C108.58 5.50622 108.34 5.36699 107.997 5.36699H107.732V6.22758H107.73Z" fill="white"/>
<path d="M34.9534 1.9C37.3844 1.9 38.9054 3.161 38.9054 5.202C38.9054 7.23 37.3844 8.491 34.9534 8.491H33.1204V11H31.0144V1.9H34.9534ZM34.8364 6.775C36.1234 6.775 36.7734 6.19 36.7734 5.202C36.7734 4.201 36.1234 3.616 34.8364 3.616H33.1204V6.775H34.8364ZM41.683 4.929C42.177 4.253 43.009 3.902 44.088 3.902V5.774C43.919 5.761 43.789 5.748 43.633 5.748C42.515 5.748 41.774 6.359 41.774 7.698V11H39.746V4.006H41.683V4.929ZM51.5613 7.529C51.5613 7.685 51.5353 7.906 51.5223 8.075H46.2313C46.4263 8.946 47.1673 9.479 48.2333 9.479C48.9743 9.479 49.5073 9.258 49.9883 8.803L51.0673 9.973C50.4173 10.714 49.4423 11.104 48.1813 11.104C45.7633 11.104 44.1903 9.583 44.1903 7.503C44.1903 5.41 45.7893 3.902 47.9213 3.902C49.9753 3.902 51.5613 5.28 51.5613 7.529ZM47.9343 5.436C47.0113 5.436 46.3483 5.995 46.2053 6.892H49.6503C49.5073 6.008 48.8443 5.436 47.9343 5.436ZM61.3485 3.902C63.0125 3.902 64.2085 4.864 64.2085 6.996V11H62.1805V7.308C62.1805 6.177 61.6735 5.657 60.8545 5.657C59.9445 5.657 59.3075 6.242 59.3075 7.49V11H57.2795V7.308C57.2795 6.177 56.7985 5.657 55.9535 5.657C55.0565 5.657 54.4195 6.242 54.4195 7.49V11H52.3915V4.006H54.3285V4.812C54.8485 4.214 55.6285 3.902 56.5255 3.902C57.5005 3.902 58.3325 4.279 58.8265 5.046C59.3855 4.331 60.2955 3.902 61.3485 3.902ZM66.5203 3.031C65.7663 3.031 65.2593 2.537 65.2593 1.9C65.2593 1.263 65.7663 0.768999 66.5203 0.768999C67.2743 0.768999 67.7813 1.237 67.7813 1.861C67.7813 2.537 67.2743 3.031 66.5203 3.031ZM65.5063 11V4.006H67.5343V11H65.5063ZM73.9144 4.006H75.9424V11H74.0184V10.168C73.4854 10.779 72.7054 11.104 71.8474 11.104C70.0924 11.104 68.8574 10.116 68.8574 7.958V4.006H70.8854V7.659C70.8854 8.829 71.4054 9.349 72.3024 9.349C73.2384 9.349 73.9144 8.751 73.9144 7.464V4.006ZM86.2582 3.902C87.9222 3.902 89.1182 4.864 89.1182 6.996V11H87.0902V7.308C87.0902 6.177 86.5832 5.657 85.7642 5.657C84.8542 5.657 84.2172 6.242 84.2172 7.49V11H82.1892V7.308C82.1892 6.177 81.7082 5.657 80.8632 5.657C79.9662 5.657 79.3292 6.242 79.3292 7.49V11H77.3012V4.006H79.2382V4.812C79.7582 4.214 80.5382 3.902 81.4352 3.902C82.4102 3.902 83.2422 4.279 83.7362 5.046C84.2952 4.331 85.2052 3.902 86.2582 3.902Z" fill="#FFD500"/>
</svg>
