<svg width="19" height="18" viewBox="0 0 19 18" fill="none" xmlns="http://www.w3.org/2000/svg">
<path d="M9.25507 17.438C4.45771 17.438 0.554688 13.6313 0.554688 8.95241C0.554688 6.58957 1.55012 4.44906 3.15342 2.90898C3.16864 2.88321 3.18731 2.85874 3.20952 2.83633C3.23882 2.80664 3.27195 2.78273 3.30747 2.76452C4.86443 1.34022 6.95716 0.466858 9.25507 0.466858C14.0524 0.466858 17.9554 4.27342 17.9554 8.95241C17.9554 13.6314 14.0524 17.438 9.25507 17.438ZM9.63804 12.9242V16.6558C10.5385 16.4904 11.3885 15.7438 12.0641 14.5122C12.2213 14.2259 12.3648 13.9208 12.4939 13.5998C11.6012 13.2052 10.6355 12.9746 9.63804 12.9242ZM6.00606 13.5745C6.1378 13.9047 6.28476 14.2184 6.44599 14.5122C7.12164 15.7438 7.97164 16.4904 8.8721 16.6558V12.9211C7.87274 12.9632 6.90335 13.1866 6.00606 13.5745ZM13.1782 13.9425C13.0455 14.2655 12.899 14.5738 12.7395 14.8647C12.4218 15.4438 12.0642 15.9322 11.6766 16.3225C12.6999 16.0018 13.6334 15.4838 14.4295 14.8144C14.0389 14.4825 13.6198 14.191 13.1782 13.9425ZM4.0464 14.7855C4.84997 15.4689 5.79552 15.9974 6.83365 16.3226C6.44599 15.9322 6.08839 15.4439 5.77072 14.8647C5.60605 14.5645 5.45544 14.246 5.31939 13.9116C4.87007 14.1596 4.44364 14.4517 4.0464 14.7855ZM13.4411 13.229C13.9901 13.5267 14.5085 13.8843 14.9871 14.2979C16.2681 12.9918 17.086 11.2495 17.1803 9.32593H14.0836C14.05 10.7182 13.8285 12.0514 13.4411 13.229ZM1.32982 9.32593C1.42326 11.2339 2.22864 12.9632 3.49177 14.2658C3.9769 13.8513 4.50242 13.494 5.05888 13.1979C4.67782 12.0279 4.45992 10.706 4.4265 9.32583H1.32982V9.32593ZM9.63804 12.1762C10.7229 12.2262 11.7742 12.4704 12.7476 12.8918C13.0893 11.8149 13.2854 10.5989 13.3175 9.32583H9.63804V12.1762ZM5.19263 9.32593C5.22451 10.5889 5.41782 11.7957 5.75445 12.8663C6.73178 12.4519 7.78619 12.2151 8.8721 12.1733V9.32593H5.19263ZM14.0837 8.5789H17.1804C17.0866 6.66297 16.2751 4.92744 15.0029 3.62295C14.5212 4.03689 13.999 4.39434 13.4463 4.69129C13.8304 5.86505 14.0501 7.1927 14.0837 8.5789ZM9.63804 8.5789H13.3175C13.2855 7.31083 13.0908 6.09934 12.7517 5.02567C11.7761 5.44345 10.7231 5.68418 9.63804 5.73012V8.5789ZM5.19263 8.5789H8.8721V5.73012C7.78629 5.68427 6.7337 5.44382 5.75837 5.02605C5.41935 6.09971 5.22461 7.31101 5.19263 8.5789ZM1.32982 8.5789H4.4265C4.46001 7.1928 4.67974 5.86524 5.06386 4.69157C4.51114 4.39463 3.98915 4.03717 3.50738 3.62295C2.23506 4.92744 1.42364 6.66297 1.32982 8.5789ZM6.01103 4.31787C6.90575 4.70903 7.87341 4.93603 8.8721 4.98225V1.24899C7.97164 1.41446 7.12164 2.16102 6.44599 3.39258C6.28677 3.6828 6.14163 3.99216 6.01103 4.31787ZM9.63804 1.24899V4.98225C10.6361 4.93594 11.6039 4.70884 12.4989 4.31749C12.3684 3.99188 12.2233 3.68271 12.064 3.39258C11.3885 2.16102 10.5385 1.41446 9.63804 1.24899ZM4.06345 3.10489C4.45743 3.43797 4.88003 3.72968 5.32552 3.97797C5.45994 3.64909 5.60853 3.33572 5.77063 3.04008C6.0883 2.46095 6.4459 1.97267 6.83356 1.58235C5.80299 1.90516 4.86328 2.42864 4.06345 3.10489ZM11.6766 1.58235C12.0642 1.97267 12.4218 2.46104 12.7395 3.04008C12.9016 3.33562 13.0501 3.64891 13.1845 3.97769C13.6301 3.7294 14.0527 3.43778 14.4467 3.10489C13.6469 2.42855 12.7071 1.90516 11.6766 1.58235Z" fill="#9EACB9" stroke="#9EACB9" stroke-width="0.5"/>
</svg>
