<svg width="21" height="23" viewBox="0 0 21 23" fill="none" xmlns="http://www.w3.org/2000/svg">
<path d="M15.7083 1.08331L19.875 5.24998M19.875 5.24998L15.7083 9.41665M19.875 5.24998H6.125C4.37484 5.24998 3.49975 5.24998 2.83128 5.59058C2.24327 5.89019 1.76521 6.36825 1.4656 6.95626C1.125 7.62473 1.125 8.49982 1.125 10.25V10.4583M1.125 17.75H14.875C16.6252 17.75 17.5002 17.75 18.1687 17.4094C18.7567 17.1098 19.2348 16.6317 19.5344 16.0437C19.875 15.3752 19.875 14.5001 19.875 12.75V12.5416M1.125 17.75L5.29167 21.9166M1.125 17.75L5.29167 13.5833" stroke="#EDEFF2" stroke-width="2" stroke-linecap="round" stroke-linejoin="round"/>
</svg>
