<svg width="21" height="22" viewBox="0 0 21 22" fill="none" xmlns="http://www.w3.org/2000/svg">
<path d="M7.5948 18.2944L8.19167 19.6036C8.3691 19.9934 8.65866 20.3245 9.02524 20.5569C9.39181 20.7893 9.81965 20.9129 10.2569 20.9129C10.6941 20.9129 11.1219 20.7893 11.4885 20.5569C11.8551 20.3245 12.1446 19.9934 12.3221 19.6036L12.9189 18.2944C13.1314 17.8298 13.4888 17.4425 13.9402 17.1877C14.3944 16.9322 14.9199 16.8233 15.4414 16.8767L16.9018 17.0283C17.3365 17.0732 17.7752 16.9941 18.1648 16.8006C18.5543 16.6071 18.8779 16.3075 19.0963 15.9382C19.3151 15.5692 19.4193 15.1461 19.3963 14.7204C19.3734 14.2947 19.2242 13.8847 18.967 13.54L18.1023 12.3813C17.7944 11.9656 17.6299 11.4653 17.6326 10.9525C17.6325 10.4412 17.7985 9.9429 18.1069 9.52931L18.9715 8.37059C19.2288 8.02594 19.3779 7.61588 19.4009 7.19018C19.4238 6.76448 19.3196 6.34143 19.1009 5.97236C18.8824 5.60306 18.5588 5.30351 18.1693 5.11002C17.7798 4.91653 17.341 4.83741 16.9063 4.88225L15.4459 5.03387C14.9244 5.08729 14.3989 4.97844 13.9447 4.72289C13.4924 4.46661 13.1349 4.07726 12.9235 3.61065L12.3221 2.30142C12.1446 1.9117 11.8551 1.58056 11.4885 1.34817C11.1219 1.11578 10.6941 0.992118 10.2569 0.992188C9.81965 0.992118 9.39181 1.11578 9.02524 1.34817C8.65866 1.58056 8.3691 1.9117 8.19167 2.30142L7.5948 3.61065C7.38333 4.07726 7.02584 4.46661 6.57355 4.72289C6.11932 4.97844 5.59384 5.08729 5.07231 5.03387L3.60739 4.88225C3.17267 4.83741 2.73395 4.91653 2.34442 5.11002C1.95489 5.30351 1.63129 5.60306 1.41283 5.97236C1.1941 6.34143 1.0899 6.76448 1.11286 7.19018C1.13582 7.61588 1.28497 8.02594 1.54219 8.37059L2.40685 9.52931C2.71521 9.9429 2.88126 10.4412 2.88117 10.9525C2.88126 11.4639 2.71521 11.9622 2.40685 12.3758L1.54219 13.5345C1.28497 13.8791 1.13582 14.2892 1.11286 14.7149C1.0899 15.1406 1.1941 15.5636 1.41283 15.9327C1.6315 16.3018 1.95515 16.6012 2.34462 16.7947C2.73409 16.9881 3.1727 17.0674 3.60739 17.0228L5.06778 16.8712C5.5893 16.8178 6.11478 16.9266 6.56901 17.1822C7.02299 17.4377 7.38214 17.8271 7.5948 18.2944Z" stroke="#A4A4A4" stroke-width="2" stroke-linecap="round" stroke-linejoin="round"/>
<path d="M10.255 13.9406C11.9471 13.9406 13.3188 12.6028 13.3188 10.9525C13.3188 9.30225 11.9471 7.96443 10.255 7.96443C8.56297 7.96443 7.19128 9.30225 7.19128 10.9525C7.19128 12.6028 8.56297 13.9406 10.255 13.9406Z" stroke="#A4A4A4" stroke-width="2" stroke-linecap="round" stroke-linejoin="round"/>
</svg>
