<svg width="21" height="21" viewBox="0 0 21 21" fill="none" xmlns="http://www.w3.org/2000/svg">
<path d="M16.75 13.625L19.875 16.75M19.875 16.75L16.75 19.875M19.875 16.75H17.3426C16.3642 16.75 15.8751 16.75 15.431 16.6152C15.0379 16.4958 14.6722 16.3001 14.3549 16.0392C13.9964 15.7446 13.725 15.3375 13.1823 14.5235L12.9306 14.1458M16.75 1.125L19.875 4.25M19.875 4.25L16.75 7.375M19.875 4.25H17.3426C16.3642 4.25 15.8751 4.25 15.431 4.38485C15.0379 4.50422 14.6722 4.69994 14.3549 4.96079C13.9964 5.25545 13.725 5.66247 13.1823 6.4765L7.81767 14.5235C7.27498 15.3375 7.00363 15.7446 6.64513 16.0392C6.32775 16.3001 5.96206 16.4958 5.56896 16.6152C5.12493 16.75 4.63576 16.75 3.65741 16.75H1.125M1.125 4.25H3.65741C4.63576 4.25 5.12494 4.25 5.56896 4.38485C5.96206 4.50422 6.32775 4.69994 6.64513 4.96079C7.00363 5.25545 7.27498 5.66247 7.81767 6.4765L8.06944 6.85417" stroke="black" stroke-width="2" stroke-linecap="round" stroke-linejoin="round"/>
</svg>
