<svg width="22" height="21" viewBox="0 0 22 21" fill="none" xmlns="http://www.w3.org/2000/svg">
<path d="M10.5224 2.43955C10.7578 1.97446 10.8755 1.74192 11.0352 1.66762C11.1743 1.60298 11.3358 1.60298 11.4748 1.66762C11.6345 1.74192 11.7522 1.97446 11.9876 2.43955L14.2208 6.85195C14.2902 6.98925 14.325 7.05791 14.3758 7.11121C14.4207 7.1584 14.4746 7.19664 14.5345 7.22381C14.6022 7.25449 14.6799 7.26556 14.8352 7.28771L19.8304 7.9998C20.3564 8.07479 20.6194 8.11228 20.7412 8.23759C20.8471 8.34661 20.8969 8.49642 20.8767 8.6453C20.8535 8.81642 20.6631 8.9973 20.2823 9.35907L16.6691 12.7914C16.5565 12.8984 16.5001 12.9519 16.4638 13.0156C16.4316 13.0719 16.411 13.1339 16.403 13.1979C16.394 13.2702 16.4073 13.3458 16.4339 13.4969L17.2864 18.345C17.3764 18.8564 17.4213 19.112 17.3368 19.2637C17.2633 19.3957 17.1326 19.4883 16.9812 19.5157C16.8071 19.5472 16.5717 19.4264 16.1009 19.185L11.6353 16.8945C11.4961 16.8231 11.4266 16.7875 11.3533 16.7734C11.2884 16.761 11.2216 16.761 11.1567 16.7734C11.0834 16.7875 11.0139 16.8231 10.8747 16.8945L6.40908 19.185C5.93827 19.4264 5.70287 19.5472 5.52881 19.5157C5.37737 19.4883 5.24669 19.3957 5.17317 19.2637C5.08868 19.112 5.13364 18.8564 5.22356 18.345L6.07611 13.4969C6.10269 13.3458 6.11598 13.2702 6.10699 13.1979C6.09902 13.1339 6.07838 13.0719 6.04621 13.0156C6.00987 12.9519 5.95355 12.8984 5.84092 12.7914L2.22771 9.35906C1.84689 8.9973 1.65648 8.81642 1.63331 8.6453C1.61315 8.49642 1.66295 8.34661 1.76885 8.23759C1.89057 8.11228 2.15358 8.07479 2.67959 7.9998L7.6748 7.28771C7.83015 7.26556 7.90782 7.25449 7.97546 7.22381C8.03536 7.19664 8.08928 7.1584 8.13423 7.11121C8.18501 7.05791 8.21976 6.98925 8.28925 6.85195L10.5224 2.43955Z" stroke="#9EACB9" stroke-width="2" stroke-linecap="round" stroke-linejoin="round"/>
</svg>
