<svg width="22" height="20" viewBox="0 0 22 20" fill="none" xmlns="http://www.w3.org/2000/svg">
<path d="M18.4037 18.9167V12.9404M15.34 15.9285H21.4675M11.255 12.9404H7.16998C5.26661 12.9404 4.31492 12.9404 3.56422 13.2437C2.56328 13.6481 1.76804 14.4237 1.35343 15.3999C1.04248 16.1321 1.04248 17.0603 1.04248 18.9167M14.8294 1.27764C16.3264 1.86868 17.3825 3.30014 17.3825 4.97217C17.3825 6.6442 16.3264 8.07567 14.8294 8.6667M12.7869 4.97217C12.7869 7.17255 10.9579 8.95631 8.70186 8.95631C6.44577 8.95631 4.61686 7.17255 4.61686 4.97217C4.61686 2.7718 6.44577 0.988037 8.70186 0.988037C10.9579 0.988037 12.7869 2.7718 12.7869 4.97217Z" stroke="#0C0910" stroke-linecap="round" stroke-linejoin="round"/>
</svg>
