<svg width="75" height="74" viewBox="0 0 75 74" fill="none" xmlns="http://www.w3.org/2000/svg">
<path d="M69.1398 56.0316L43.3069 11.2877C42.1425 9.27014 40.0045 7.99711 37.6921 7.93164L59.7865 66.073H63.3331C67.0272 66.073 70.0333 63.067 70.0333 59.3728C70.0333 58.1995 69.7236 57.0441 69.1398 56.0316Z" fill="#FFD500"/>
<path d="M64.7952 56.0317C65.2999 57.0442 65.5664 58.1996 65.5664 59.3729C65.5664 63.0669 62.9742 66.073 59.7863 66.073H11.6671C7.97302 66.073 4.96692 63.0669 4.96692 59.3729C4.96692 58.1996 5.27665 57.0442 5.86027 56.0317L31.6932 11.2877C32.8904 9.21516 35.1148 7.92725 37.5 7.92725C37.5641 7.92725 37.6281 7.92869 37.6921 7.93173C39.6768 8.0092 41.5098 9.27919 42.5088 11.2877L64.7952 56.0317Z" fill="#FEEB9A"/>
<path d="M37.5 51.1831V58.6278C39.5562 58.6278 41.2224 56.9616 41.2224 54.9054C41.2224 52.8493 39.5562 51.1831 37.5 51.1831Z" fill="#E5E3E3"/>
<path d="M37.5 51.1831C37.9109 51.1831 38.2445 52.8493 38.2445 54.9055C38.2445 56.9618 37.9109 58.6279 37.5 58.6279C35.4437 58.6279 33.7776 56.9618 33.7776 54.9055C33.7776 52.8493 35.4437 51.1831 37.5 51.1831Z" fill="white"/>
<path d="M37.5 19.1714V46.7167C39.5562 46.7167 41.2224 45.0491 41.2224 42.9943V22.8938C41.2224 20.8375 39.5562 19.1714 37.5 19.1714Z" fill="#E5E3E3"/>
<path d="M37.5 19.1714C37.9109 19.1714 38.2445 20.8375 38.2445 22.8938V42.9943C38.2445 45.049 37.9109 46.7167 37.5 46.7167C35.4437 46.7167 33.7776 45.0491 33.7776 42.9943V22.8938C33.7776 20.8375 35.4437 19.1714 37.5 19.1714Z" fill="white"/>
</svg>
